<mxfile host="app.diagrams.net" modified="2021-03-28T00:38:00.047Z" agent="5.0 (Windows NT 6.1) AppleWebKit/537.36 (KHTML, like Gecko) Chrome/87.0.4280.88 Safari/537.36 Edg/87.0.664.57" etag="41OuakPPoULYj_-s-Xe8" version="14.5.3" type="github">
  <diagram id="C5RBs43oDa-KdzZeNtuy" name="Page-1">
    <mxGraphModel dx="868" dy="1651" grid="1" gridSize="10" guides="1" tooltips="1" connect="1" arrows="1" fold="1" page="1" pageScale="1" pageWidth="827" pageHeight="1169" math="0" shadow="0">
      <root>
        <mxCell id="WIyWlLk6GJQsqaUBKTNV-0" />
        <mxCell id="WIyWlLk6GJQsqaUBKTNV-1" parent="WIyWlLk6GJQsqaUBKTNV-0" />
        <mxCell id="lYrutSBF03TJzKnHKQ7h-3" value="" style="edgeStyle=orthogonalEdgeStyle;rounded=0;orthogonalLoop=1;jettySize=auto;html=1;" parent="WIyWlLk6GJQsqaUBKTNV-1" source="FQ0B8DtnKVogVxd-fA1m-1" target="lYrutSBF03TJzKnHKQ7h-2" edge="1">
          <mxGeometry relative="1" as="geometry" />
        </mxCell>
        <mxCell id="FQ0B8DtnKVogVxd-fA1m-1" value="&lt;div style=&quot;color: rgb(255 , 255 , 255)&quot;&gt;&lt;div&gt;int menu;&lt;/div&gt;&lt;div&gt;&lt;span&gt;	&lt;/span&gt;char nama[20];&lt;/div&gt;&lt;div&gt;&lt;span&gt;	&lt;/span&gt;char kota[20];&lt;/div&gt;&lt;/div&gt;" style="shape=hexagon;perimeter=hexagonPerimeter2;whiteSpace=wrap;html=1;fixedSize=1;fillColor=#FF0000;" parent="WIyWlLk6GJQsqaUBKTNV-1" vertex="1">
          <mxGeometry x="210" y="10" width="120" height="70" as="geometry" />
        </mxCell>
        <mxCell id="FQ0B8DtnKVogVxd-fA1m-11" value="" style="edgeStyle=orthogonalEdgeStyle;rounded=0;orthogonalLoop=1;jettySize=auto;html=1;" parent="WIyWlLk6GJQsqaUBKTNV-1" source="FQ0B8DtnKVogVxd-fA1m-5" edge="1">
          <mxGeometry relative="1" as="geometry">
            <mxPoint x="270" y="380" as="targetPoint" />
          </mxGeometry>
        </mxCell>
        <mxCell id="FQ0B8DtnKVogVxd-fA1m-5" value="input nama,kota" style="shape=parallelogram;html=1;strokeWidth=2;perimeter=parallelogramPerimeter;whiteSpace=wrap;rounded=1;arcSize=12;size=0.23;fillColor=#60a917;strokeColor=#2D7600;fontColor=#ffffff;" parent="WIyWlLk6GJQsqaUBKTNV-1" vertex="1">
          <mxGeometry x="185.54999999999998" y="280" width="168.9" height="50" as="geometry" />
        </mxCell>
        <mxCell id="FQ0B8DtnKVogVxd-fA1m-58" value="" style="edgeStyle=orthogonalEdgeStyle;rounded=0;orthogonalLoop=1;jettySize=auto;html=1;" parent="WIyWlLk6GJQsqaUBKTNV-1" source="FQ0B8DtnKVogVxd-fA1m-57" target="FQ0B8DtnKVogVxd-fA1m-1" edge="1">
          <mxGeometry relative="1" as="geometry" />
        </mxCell>
        <mxCell id="FQ0B8DtnKVogVxd-fA1m-57" value="Mulai" style="ellipse;whiteSpace=wrap;html=1;fontColor=#ffffff;strokeColor=#001DBC;fillColor=#0050ef;" parent="WIyWlLk6GJQsqaUBKTNV-1" vertex="1">
          <mxGeometry x="210" y="-90" width="120" height="80" as="geometry" />
        </mxCell>
        <mxCell id="lYrutSBF03TJzKnHKQ7h-6" value="" style="edgeStyle=orthogonalEdgeStyle;rounded=0;orthogonalLoop=1;jettySize=auto;html=1;" parent="WIyWlLk6GJQsqaUBKTNV-1" source="lYrutSBF03TJzKnHKQ7h-0" target="FQ0B8DtnKVogVxd-fA1m-5" edge="1">
          <mxGeometry relative="1" as="geometry" />
        </mxCell>
        <mxCell id="lYrutSBF03TJzKnHKQ7h-15" style="edgeStyle=orthogonalEdgeStyle;rounded=0;orthogonalLoop=1;jettySize=auto;html=1;entryX=0.5;entryY=0;entryDx=0;entryDy=0;" parent="WIyWlLk6GJQsqaUBKTNV-1" source="lYrutSBF03TJzKnHKQ7h-0" edge="1">
          <mxGeometry relative="1" as="geometry">
            <mxPoint x="105" y="390" as="targetPoint" />
          </mxGeometry>
        </mxCell>
        <mxCell id="lYrutSBF03TJzKnHKQ7h-0" value="&lt;div style=&quot;color: rgb(255 , 255 , 255)&quot;&gt;&lt;div&gt;while(menu==1)&lt;/div&gt;&lt;/div&gt;" style="shape=hexagon;perimeter=hexagonPerimeter2;whiteSpace=wrap;html=1;fixedSize=1;fillColor=#FF0000;" parent="WIyWlLk6GJQsqaUBKTNV-1" vertex="1">
          <mxGeometry x="210" y="190" width="120" height="60" as="geometry" />
        </mxCell>
        <mxCell id="lYrutSBF03TJzKnHKQ7h-5" value="" style="edgeStyle=orthogonalEdgeStyle;rounded=0;orthogonalLoop=1;jettySize=auto;html=1;" parent="WIyWlLk6GJQsqaUBKTNV-1" source="lYrutSBF03TJzKnHKQ7h-2" target="lYrutSBF03TJzKnHKQ7h-0" edge="1">
          <mxGeometry relative="1" as="geometry" />
        </mxCell>
        <mxCell id="lYrutSBF03TJzKnHKQ7h-2" value="input menu" style="shape=parallelogram;html=1;strokeWidth=2;perimeter=parallelogramPerimeter;whiteSpace=wrap;rounded=1;arcSize=12;size=0.23;fillColor=#60a917;strokeColor=#2D7600;fontColor=#ffffff;" parent="WIyWlLk6GJQsqaUBKTNV-1" vertex="1">
          <mxGeometry x="200" y="110" width="140" height="40" as="geometry" />
        </mxCell>
        <mxCell id="lYrutSBF03TJzKnHKQ7h-11" value="" style="edgeStyle=orthogonalEdgeStyle;rounded=0;orthogonalLoop=1;jettySize=auto;html=1;" parent="WIyWlLk6GJQsqaUBKTNV-1" source="lYrutSBF03TJzKnHKQ7h-7" target="lYrutSBF03TJzKnHKQ7h-10" edge="1">
          <mxGeometry relative="1" as="geometry" />
        </mxCell>
        <mxCell id="lYrutSBF03TJzKnHKQ7h-7" value="input(nama,kota)" style="shape=process;whiteSpace=wrap;html=1;backgroundOutline=1;fillColor=#f8cecc;strokeColor=#b85450;" parent="WIyWlLk6GJQsqaUBKTNV-1" vertex="1">
          <mxGeometry x="210" y="380" width="120" height="60" as="geometry" />
        </mxCell>
        <mxCell id="lYrutSBF03TJzKnHKQ7h-22" style="edgeStyle=orthogonalEdgeStyle;rounded=0;orthogonalLoop=1;jettySize=auto;html=1;" parent="WIyWlLk6GJQsqaUBKTNV-1" source="lYrutSBF03TJzKnHKQ7h-10" edge="1">
          <mxGeometry relative="1" as="geometry">
            <mxPoint x="340" y="220" as="targetPoint" />
            <Array as="points">
              <mxPoint x="440" y="490" />
              <mxPoint x="440" y="220" />
            </Array>
          </mxGeometry>
        </mxCell>
        <mxCell id="lYrutSBF03TJzKnHKQ7h-10" value="input menu" style="shape=parallelogram;html=1;strokeWidth=2;perimeter=parallelogramPerimeter;whiteSpace=wrap;rounded=1;arcSize=12;size=0.23;fillColor=#60a917;strokeColor=#2D7600;fontColor=#ffffff;" parent="WIyWlLk6GJQsqaUBKTNV-1" vertex="1">
          <mxGeometry x="200" y="470" width="140" height="40" as="geometry" />
        </mxCell>
        <mxCell id="lYrutSBF03TJzKnHKQ7h-18" value="" style="edgeStyle=orthogonalEdgeStyle;rounded=0;orthogonalLoop=1;jettySize=auto;html=1;" parent="WIyWlLk6GJQsqaUBKTNV-1" target="lYrutSBF03TJzKnHKQ7h-16" edge="1">
          <mxGeometry relative="1" as="geometry">
            <mxPoint x="105" y="440" as="sourcePoint" />
          </mxGeometry>
        </mxCell>
        <mxCell id="lYrutSBF03TJzKnHKQ7h-16" value="Selesai" style="ellipse;whiteSpace=wrap;html=1;fontColor=#ffffff;strokeColor=#001DBC;fillColor=#0050ef;" parent="WIyWlLk6GJQsqaUBKTNV-1" vertex="1">
          <mxGeometry x="62.779999999999994" y="480" width="84.45" height="60" as="geometry" />
        </mxCell>
        <mxCell id="lYrutSBF03TJzKnHKQ7h-19" value="input" style="verticalLabelPosition=bottom;verticalAlign=top;html=1;shape=offPageConnector;rounded=0;size=0.5;" parent="WIyWlLk6GJQsqaUBKTNV-1" vertex="1">
          <mxGeometry x="354.45" y="400" width="40" height="30" as="geometry" />
        </mxCell>
        <mxCell id="lYrutSBF03TJzKnHKQ7h-20" value="" style="endArrow=classic;html=1;" parent="WIyWlLk6GJQsqaUBKTNV-1" edge="1">
          <mxGeometry width="50" height="50" relative="1" as="geometry">
            <mxPoint x="330" y="380" as="sourcePoint" />
            <mxPoint x="360" y="390" as="targetPoint" />
          </mxGeometry>
        </mxCell>
        <mxCell id="lYrutSBF03TJzKnHKQ7h-21" value="" style="endArrow=classic;html=1;" parent="WIyWlLk6GJQsqaUBKTNV-1" edge="1">
          <mxGeometry width="50" height="50" relative="1" as="geometry">
            <mxPoint x="330" y="440" as="sourcePoint" />
            <mxPoint x="360" y="430" as="targetPoint" />
          </mxGeometry>
        </mxCell>
        <mxCell id="aH0BZYLFgx1ZKJ95zTKU-0" value="Tampilkan seluruh data" style="shape=parallelogram;html=1;strokeWidth=2;perimeter=parallelogramPerimeter;whiteSpace=wrap;rounded=1;arcSize=12;size=0.23;fillColor=#60a917;strokeColor=#2D7600;fontColor=#ffffff;" vertex="1" parent="WIyWlLk6GJQsqaUBKTNV-1">
          <mxGeometry x="15.55" y="390" width="178.9" height="50" as="geometry" />
        </mxCell>
      </root>
    </mxGraphModel>
  </diagram>
</mxfile>
